# xmcd
#
# Track frame offsets: 
#        150
#        14218
#        26360
#        37923
#        60019
#        72793
#        84590
#        121783
#        135428
#        152566
#
# Disc length: 2402 seconds
#
# Revision: 0
# Processed by: cddbd v1.5.2PL0 Copyright (c) Steve Scherf et al.
# Submitted via: ExactAudioCopy v0.95b4
#
DISCID=6d09600a
DTITLE=Roland Van Campenhout - Never Enough
DYEAR=2007
DGENRE=Blues
TTITLE0=Hissing O'the Heath
TTITLE1=Midnight Star
TTITLE2=Never Enough
TTITLE3=Male Prostitute
TTITLE4=In My Time
TTITLE5=Officer, Kiss Me Please
TTITLE6=It All Has To Do With It
TTITLE7=Fire In The Morning
TTITLE8=Never Too Soon
TTITLE9=Almost Home
EXTD=
EXTT0=
EXTT1=
EXTT2=
EXTT3=
EXTT4=
EXTT5=
EXTT6=
EXTT7=
EXTT8=
EXTT9=
PLAYORDER=
